<?xml version="1.0" encoding="UTF-8"?>
<svg xmlns='http://www.w3.org/2000/svg' xmlns:xlink='http://www.w3.org/1999/xlink' version='1.1' baseProfile='full' width='128px' height='128px'>
	<path id="circle2" d="M 64 10 A 54 54 0 0 0 10 64 A 54 54 0 0 0 64 118 A 54 54 0 0 0 91.34375 110.56445 L 92.84375 112.16602 L 95.300781 110.44531 C 97.365656 113.39426 100.31237 114.90064 103.75195 114.7207 C 107.19153 114.54076 111.08102 112.8239 115.53516 109.70508 C 119.81864 106.70575 123.02824 105.57981 124.82422 105.89648 C 125.72221 106.05482 126.32896 106.47585 126.85547 107.3457 C 127.38198 108.21556 127.76267 109.57303 127.89258 111.41406 C 128.17137 115.36507 128.72867 118.08833 129.91406 119.78125 C 130.50676 120.6277 131.36456 121.2266 132.33984 121.30859 C 133.31512 121.39058 134.2663 121.00676 135.19922 120.35352 L 134.05273 118.71484 C 133.34735 119.20876 132.82966 119.34346 132.50781 119.31641 C 132.18596 119.28935 131.916 119.15161 131.55273 118.63281 C 130.8262 117.59522 130.15516 115.0758 129.88672 111.27148 C 129.74301 109.23486 129.33731 107.58221 128.56641 106.30859 C 127.7955 105.03497 126.59509 104.17868 125.17188 103.92773 C 122.32543 103.42583 118.84281 104.94954 114.38867 108.06836 C 110.10519 111.06769 106.48764 112.57598 103.64648 112.72461 C 100.80534 112.87324 98.698423 111.8109 96.939453 109.29883 L 99.396484 107.57812 L 98.404297 105.62109 A 54 54 0 0 0 118 64 A 54 54 0 0 0 64 10 z M 64 20 A 44 44 0 0 1 108 64 A 44 44 0 0 1 93.744141 96.421875 L 88.996094 87.048828 A 34 34 0 0 0 98 64 A 34 34 0 0 0 64 30 A 34 34 0 0 0 30 64 A 34 34 0 0 0 64 98 A 34 34 0 0 0 77.109375 95.371094 L 84.294922 103.04102 A 44 44 0 0 1 64 108 A 44 44 0 0 1 20 64 A 44 44 0 0 1 64 20 z M 64 40 A 24 24 0 0 1 88 64 A 24 24 0 0 1 84.021484 77.232422 L 77.945312 65.238281 A 14 14 0 0 0 78 64 A 14 14 0 0 0 64 50 A 14 14 0 0 0 50 64 A 14 14 0 0 0 60.394531 77.527344 L 69.587891 87.339844 A 24 24 0 0 1 64 88 A 24 24 0 0 1 40 64 A 24 24 0 0 1 64 40 z " />
</svg>
